<?xml version="1.0" encoding="UTF-8" standalone="no"?>
<svg
   version="1.1"
   id="svg9"
   xml:space="preserve"
   width="926.9483"
   height="512.93646"
   viewBox="440 340 360.48093 199.47586"
   sodipodi:docname="flourish-edited.svg"
   inkscape:version="1.1-dev (9017afb, 2021-01-01)"
   xmlns:inkscape="http://www.inkscape.org/namespaces/inkscape"
   xmlns:sodipodi="http://sodipodi.sourceforge.net/DTD/sodipodi-0.dtd"
   xmlns="http://www.w3.org/2000/svg"
   xmlns:svg="http://www.w3.org/2000/svg"><defs
     id="defs13"><clipPath
       clipPathUnits="userSpaceOnUse"
       id="clipPath23"><path
         d="m 335.599,262.493 h 413.8 v 554.013 h -413.8 z"
         id="path21" /></clipPath></defs><sodipodi:namedview
     id="namedview11"
     pagecolor="#ffffff"
     bordercolor="#666666"
     borderopacity="1.0"
     objecttolerance="10.0"
     gridtolerance="10.0"
     guidetolerance="10.0"
     inkscape:pageshadow="2"
     inkscape:pageopacity="0.0"
     inkscape:pagecheckerboard="0"
     showgrid="false"
     inkscape:zoom="0.37361111"
     inkscape:cx="69.591078"
     inkscape:cy="295.76208"
     inkscape:window-width="1920"
     inkscape:window-height="1105"
     inkscape:window-x="1440"
     inkscape:window-y="23"
     inkscape:window-maximized="1"
     inkscape:current-layer="g17"
     scale-x="0.68889"
     lock-margins="true"
     fit-margin-top="0"
     fit-margin-left="0"
     fit-margin-right="0"
     fit-margin-bottom="0" /><g
     id="g15"
     inkscape:groupmode="layer"
     inkscape:label="Hibberd's Limited Primary Logo all"
     transform="matrix(1.3333333,0,0,-1.3333333,-103.09332,1344.8225)"><g
       id="g17"><g
         id="g19"
         clip-path="url(#clipPath23)"><g
           id="g29"
           transform="translate(510.9814,614.7651)"><path
             d="M 0,0 C -22.597,3.397 -44.502,9.399 -65.785,17.748 -43.177,14.391 -21.274,8.383 0,0"
             style="fill:#fff;fill-opacity:1;fill-rule:nonzero;stroke:none"
             id="path31" /></g><g
           id="g33"
           transform="translate(472.1748,679.5703)"><path
             d="m 0,0 c 14.984,-15.269 29.969,-30.539 44.953,-45.808 -0.48,-0.487 -0.96,-0.975 -1.44,-1.462 -16.54,13.688 -31.36,29.125 -45.051,45.709 C -1.025,-1.041 -0.513,-0.52 0,0"
             style="fill:#fff;fill-opacity:1;fill-rule:nonzero;stroke:none"
             id="path35" /></g><g
           id="g37"
           transform="translate(639.3174,630.0698)"><path
             d="m 0,0 c -21.091,-5.701 -42.183,-11.401 -63.273,-17.102 -0.262,1 -0.524,1.999 -0.786,2.998 21.119,5.731 42.238,11.462 63.356,17.193 C -0.469,2.059 -0.234,1.03 0,0"
             style="fill:#fff;fill-opacity:1;fill-rule:nonzero;stroke:none"
             id="path39" /></g><g
           id="g41"
           transform="translate(408.189,666.6079)"><path
             d="M 0,0 C 19.421,-8.51 38.842,-17.02 58.263,-25.53 57.985,-26.188 57.707,-26.845 57.43,-27.502 37.175,-20.967 17.821,-12.285 -0.869,-2.019 -0.58,-1.346 -0.29,-0.673 0,0"
             style="fill:#fff;fill-opacity:1;fill-rule:nonzero;stroke:none"
             id="path43" /></g><g
           id="g45"
           transform="translate(508.7017,683.6895)"><path
             d="M 0,0 C -8.052,19.511 -16.104,39.022 -24.155,58.533 -17.88,54.177 -0.714,13.487 1.589,0.814 1.059,0.543 0.53,0.271 0,0"
             style="fill:#fff;fill-opacity:1;fill-rule:nonzero;stroke:none"
             id="path47" /></g><g
           id="g49"
           transform="translate(660.6641,692.9473)"><path
             d="m 0,0 c -16.985,-12.88 -33.972,-25.761 -50.958,-38.642 3.497,7.804 34.819,32.031 49.76,40.152 C -0.799,1.006 -0.399,0.503 0,0"
             style="fill:#fff;fill-opacity:1;fill-rule:nonzero;stroke:none"
             id="path51" /></g><g
           id="g53"
           transform="translate(456.2266,726.0928)"><path
             d="M 0,0 C 12.306,-16.668 24.612,-33.337 36.918,-50.005 36.534,-50.297 36.15,-50.59 35.766,-50.882 29.574,-47.215 4.543,-13.736 -1.416,-1.152 -0.944,-0.768 -0.472,-0.384 0,0"
             style="fill:#fff;fill-opacity:1;fill-rule:nonzero;stroke:none"
             id="path55" /></g><g
           id="g57"
           transform="translate(677.6807,662.5259)"><path
             d="m 0,0 c -18.602,-10.151 -37.926,-18.539 -58.049,-24.982 -0.287,0.694 -0.573,1.387 -0.86,2.081 19.367,8.284 38.734,16.567 58.101,24.85 C -0.538,1.299 -0.27,0.65 0,0"
             style="fill:#fff;fill-opacity:1;fill-rule:nonzero;stroke:none"
             id="path59" /></g><g
           id="g61"
           transform="translate(593.6689,674.0449)"><path
             d="M 0,0 C 10.372,18.199 22.828,34.842 37.321,49.92 26.978,31.702 14.418,15.166 0,0"
             style="fill:#fff;fill-opacity:1;fill-rule:nonzero;stroke:none"
             id="path63" /></g><g
           id="g65"
           transform="translate(426.6929,697.6006)"><path
             d="M 0,0 C 16.75,-12.894 33.501,-25.788 50.252,-38.682 49.82,-39.264 49.389,-39.846 48.958,-40.429 31.054,-29.157 14.345,-16.257 -1.219,-1.798 -0.813,-1.199 -0.406,-0.599 0,0"
             style="fill:#fff;fill-opacity:1;fill-rule:nonzero;stroke:none"
             id="path67" /></g><g
           id="g69"
           transform="translate(551.4639,690.7349)"><path
             d="M 0,0 C 2.645,20.961 5.288,41.921 7.933,62.882 8.931,62.752 9.929,62.623 10.926,62.494 8.339,41.53 5.751,20.567 3.164,-0.397 2.109,-0.265 1.056,-0.132 0,0"
             style="fill:#fff;fill-opacity:1;fill-rule:nonzero;stroke:none"
             id="path71" /></g><g
           id="g73"
           transform="translate(527.1372,752.6899)"><path
             d="M 0,0 C 2.422,-20.792 4.844,-41.584 7.267,-62.376 6.545,-62.465 5.824,-62.555 5.103,-62.645 0.842,-42.131 -1.727,-21.399 -2.125,-0.386 -1.417,-0.257 -0.708,-0.129 0,0"
             style="fill:#fff;fill-opacity:1;fill-rule:nonzero;stroke:none"
             id="path75" /></g><g
           id="g77"
           transform="translate(600.7393,741.5415)"><path
             d="m 0,0 c -6.446,-20.331 -14.654,-39.898 -24.703,-58.669 -0.647,0.281 -1.293,0.561 -1.94,0.841 L -1.993,0.864 C -1.329,0.576 -0.664,0.288 0,0"
             style="fill:#fff;fill-opacity:1;fill-rule:nonzero;stroke:none"
             id="path79" /></g><g
           id="g81"
           transform="translate(613.8359,675.9097)"><path
             d="m 0,0 c -14.11,-14.401 -28.221,-28.801 -42.332,-43.202 0.735,6.812 30.823,38.047 41.091,44.48 C -0.828,0.852 -0.414,0.426 0,0"
             style="fill:#fff;fill-opacity:1;fill-rule:nonzero;stroke:none"
             id="path83" /></g><g
           id="g85"
           transform="translate(517.6182,705.6831)"><path
             d="m 0,0 c 5.192,-19.518 10.385,-39.037 15.577,-58.555 -0.693,-0.191 -1.385,-0.383 -2.078,-0.574 C 6.304,-40.165 1.344,-20.583 -1.979,-0.546 -1.319,-0.364 -0.66,-0.182 0,0"
             style="fill:#fff;fill-opacity:1;fill-rule:nonzero;stroke:none"
             id="path87" /></g><g
           id="g89"
           transform="translate(551.7217,647.2856)"><path
             d="m 0,0 c 5.052,19.158 10.103,38.316 15.154,57.474 l 1.351,-0.366 C 17.43,49.217 6.71,8.217 1.468,-0.399 0.979,-0.266 0.488,-0.133 0,0"
             style="fill:#fff;fill-opacity:1;fill-rule:nonzero;stroke:none"
             id="path91" /></g><g
           id="g93"
           transform="translate(624.0527,616.5137)"><path
             d="M 0,0 C 14.959,1.798 29.919,3.597 44.878,5.395 44.963,4.684 45.047,3.973 45.132,3.262 30.417,-0.551 15.454,-2.33 0.258,-2.168 0.172,-1.445 0.086,-0.723 0,0"
             style="fill:#fff;fill-opacity:1;fill-rule:nonzero;stroke:none"
             id="path95" /></g><g
           id="g97"
           transform="translate(459.9351,615.7031)"><path
             d="m 0,0 c -13.942,1.738 -27.885,3.476 -41.827,5.214 5.074,3.754 34.019,0.309 42,-3.758 C 0.115,0.97 0.058,0.485 0,0"
             style="fill:#fff;fill-opacity:1;fill-rule:nonzero;stroke:none"
             id="path99" /></g><g
           id="g101"
           transform="translate(496.6011,605.4463)"><path
             d="m 0,0 h -20.541 c -0.001,0.694 -0.002,1.387 -0.004,2.081 H -0.001 C -0.001,1.387 0,0.694 0,0"
             style="fill:#fff;fill-opacity:1;fill-rule:nonzero;stroke:none"
             id="path103" /></g><g
           id="g105"
           transform="translate(576.915,662.7456)"><path
             d="m 0,0 c -3.578,-6.236 -7.156,-12.471 -10.734,-18.706 -0.829,0.482 -1.658,0.964 -2.486,1.446 C -9.731,-11 -6.242,-4.74 -2.755,1.52 -1.837,1.014 -0.918,0.507 0,0"
             style="fill:#fff;fill-opacity:1;fill-rule:nonzero;stroke:none"
             id="path107" /></g><g
           id="g109"
           transform="translate(510.8457,664.9346)"><path
             d="M 0,0 C 3.471,-6.112 6.942,-12.224 10.413,-18.335 9.802,-18.691 9.191,-19.047 8.58,-19.403 3.409,-14.274 -0.203,-8.244 -1.8,-1.048 -1.2,-0.699 -0.6,-0.349 0,0"
             style="fill:#fff;fill-opacity:1;fill-rule:nonzero;stroke:none"
             id="path111" /></g><g
           id="g113"
           transform="translate(541.9961,651.8501)"><path
             d="M 0,0 C -1.906,6.891 -1.968,13.778 0.03,20.66 0.572,20.659 1.114,20.658 1.657,20.657 V -0.003 C 1.104,-0.002 0.553,-0.001 0,0"
             style="fill:#fff;fill-opacity:1;fill-rule:nonzero;stroke:none"
             id="path115" /></g><path
           d="m 586.867,606.054 h 21.186 v -2.044 h -21.186 z"
           style="fill:#fff;fill-opacity:1;fill-rule:nonzero;stroke:none"
           id="path117" /><g
           id="g119"
           transform="translate(502.0083,628.2129)"><path
             d="m 0,0 c -5.786,3.371 -11.573,6.743 -17.359,10.114 0.5,0.887 1,1.775 1.5,2.662 C -10.075,9.4 -4.291,6.024 1.493,2.649 0.995,1.766 0.497,0.883 0,0"
             style="fill:#fff;fill-opacity:1;fill-rule:nonzero;stroke:none"
             id="path121" /></g><g
           id="g123"
           transform="translate(599.7812,636.9878)"><path
             d="m 0,0 c -5.699,-3.315 -11.398,-6.629 -17.097,-9.944 -0.369,0.647 -0.738,1.294 -1.107,1.941 4.748,4.985 10.503,8.251 17.163,9.971 C -0.694,1.312 -0.347,0.656 0,0"
             style="fill:#fff;fill-opacity:1;fill-rule:nonzero;stroke:none"
             id="path125" /></g></g></g></g></svg>
