<?xml version="1.0" encoding="UTF-8" standalone="no"?>
<svg
   version="1.1"
   id="svg9"
   xml:space="preserve"
   width="1440"
   height="1440"
   viewBox="440 340 560 760"
   sodipodi:docname="Hibberd's Limited Primary Logo 1.svg"
   inkscape:version="1.1-dev (9017afb, 2021-01-01)"
   xmlns:inkscape="http://www.inkscape.org/namespaces/inkscape"
   xmlns:sodipodi="http://sodipodi.sourceforge.net/DTD/sodipodi-0.dtd"
   xmlns="http://www.w3.org/2000/svg"
   xmlns:svg="http://www.w3.org/2000/svg"><defs
     id="defs13"><clipPath
       clipPathUnits="userSpaceOnUse"
       id="clipPath23"><path
         d="m 335.599,262.493 h 413.8 v 554.013 h -413.8 z"
         id="path21" /></clipPath></defs><sodipodi:namedview
     id="namedview11"
     pagecolor="#ffffff"
     bordercolor="#666666"
     borderopacity="1.0"
     objecttolerance="10.0"
     gridtolerance="10.0"
     guidetolerance="10.0"
     inkscape:pageshadow="2"
     inkscape:pageopacity="0.0"
     inkscape:pagecheckerboard="0"
     showgrid="false"
     inkscape:zoom="0.37361111"
     inkscape:cx="720"
     inkscape:cy="718.66171"
     inkscape:window-width="1312"
     inkscape:window-height="1003"
     inkscape:window-x="2048"
     inkscape:window-y="23"
     inkscape:window-maximized="0"
     inkscape:current-layer="g15" /><g
     id="g15"
     inkscape:groupmode="layer"
     inkscape:label="Hibberd's Limited Primary Logo all"
     transform="matrix(1.3333333,0,0,-1.3333333,0,1440)"><g
       id="g17"><g
         id="g19"
         clip-path="url(#clipPath23)"><g
           id="g25"
           transform="translate(352.7002,263.708)"><path
             d="M 0,0 H 6.351 V 24.657 H 36.052 V 0 H 42.31 V 50.343 H 36.052 V 30.447 H 6.351 V 50.343 H 0 Z M 56.946,-0.094 H 63.11 V 39.042 H 56.946 Z M 76.868,0 h 25.124 c 8.78,0 13.637,4.67 13.637,11.675 0,4.389 -2.242,7.938 -6.538,10.367 2.428,1.494 3.736,4.017 3.736,7.191 0,6.258 -4.017,9.621 -12.049,9.621 h -23.91 z m 25.778,18.399 c 4.39,0 6.725,-2.428 6.725,-6.35 0,-4.018 -2.429,-6.445 -6.725,-6.445 H 82.939 v 12.795 z m -2.055,14.851 c 4.016,0 5.978,-1.494 5.978,-4.576 0,-2.989 -1.962,-4.577 -5.884,-4.577 H 82.939 V 33.25 Z M 127.732,0 h 25.125 c 8.78,0 13.636,4.67 13.636,11.675 0,4.389 -2.241,7.938 -6.538,10.367 2.429,1.494 3.736,4.017 3.736,7.191 0,6.258 -4.016,9.621 -12.048,9.621 h -23.911 z m 25.779,18.399 c 4.389,0 6.725,-2.428 6.725,-6.35 0,-4.018 -2.429,-6.445 -6.725,-6.445 h -19.708 v 12.795 z m -2.055,14.851 c 4.016,0 5.978,-1.494 5.978,-4.576 0,-2.989 -1.962,-4.577 -5.885,-4.577 H 133.803 V 33.25 Z M 178.55,0 h 38.201 v 5.604 h -32.13 v 12.329 h 19.987 v 5.603 h -19.987 v 9.714 h 30.448 v 5.697 H 178.55 Z m 53.332,16.999 H 248.88 L 259.901,0 h 6.632 l -10.834,17.092 c 5.884,0.933 9.619,5.511 9.619,10.928 0,6.818 -4.763,10.834 -12.702,10.834 H 225.811 V 0 h 6.071 z m 0,5.696 V 33.25 h 20.734 c 4.202,0 6.445,-1.868 6.445,-5.23 0,-3.457 -2.243,-5.325 -6.445,-5.325 z m 62.614,10.649 c 9.152,0 14.851,-5.979 14.851,-13.917 0,-8.032 -5.137,-13.823 -14.851,-13.823 h -11.302 v 27.74 z m -0.094,5.603 H 277.124 V 0 h 17.278 c 13.544,0 21.202,8.126 21.202,19.334 0,11.208 -8.032,19.613 -21.202,19.613 m 31.784,-4.015 1.681,-1.588 c 4.576,4.576 6.911,8.593 6.911,11.955 0,4.015 -1.962,6.164 -4.297,6.164 -2.24,0 -3.922,-1.868 -3.922,-4.484 0,-2.427 1.401,-4.015 3.175,-4.015 h 0.468 c -0.842,-2.615 -2.148,-5.324 -4.016,-8.032 M 344.202,4.949 c 6.351,-4.015 14.103,-6.164 21.482,-6.164 10.834,0 17.279,5.885 17.279,12.797 0,8.219 -6.258,12.515 -18.774,12.515 -8.126,0 -12.141,1.028 -12.141,4.763 0,3.175 3.641,5.605 9.806,5.605 4.951,0 10.834,-1.776 15.878,-5.138 l 3.082,5.043 c -5.883,3.736 -12.141,5.605 -18.866,5.605 -10.088,0 -16.065,-4.67 -16.065,-11.115 0,-8.312 6.632,-9.994 18.587,-10.18 8.126,-0.188 12.141,-2.149 12.141,-6.725 0,-4.203 -4.297,-7.565 -11.581,-7.565 -5.51,0 -12.235,1.961 -17.84,5.697 z"
             style="fill:#153045;fill-opacity:1;fill-rule:nonzero;stroke:none"
             id="path27" /></g><g
           id="g29"
           transform="translate(510.9814,614.7651)"><path
             d="M 0,0 C -22.597,3.397 -44.502,9.399 -65.785,17.748 -43.177,14.391 -21.274,8.383 0,0"
             style="fill:#e6a03a;fill-opacity:1;fill-rule:nonzero;stroke:none"
             id="path31" /></g><g
           id="g33"
           transform="translate(472.1748,679.5703)"><path
             d="m 0,0 c 14.984,-15.269 29.969,-30.539 44.953,-45.808 -0.48,-0.487 -0.96,-0.975 -1.44,-1.462 -16.54,13.688 -31.36,29.125 -45.051,45.709 C -1.025,-1.041 -0.513,-0.52 0,0"
             style="fill:#e6a03a;fill-opacity:1;fill-rule:nonzero;stroke:none"
             id="path35" /></g><g
           id="g37"
           transform="translate(639.3174,630.0698)"><path
             d="m 0,0 c -21.091,-5.701 -42.183,-11.401 -63.273,-17.102 -0.262,1 -0.524,1.999 -0.786,2.998 21.119,5.731 42.238,11.462 63.356,17.193 C -0.469,2.059 -0.234,1.03 0,0"
             style="fill:#e6a03a;fill-opacity:1;fill-rule:nonzero;stroke:none"
             id="path39" /></g><g
           id="g41"
           transform="translate(408.189,666.6079)"><path
             d="M 0,0 C 19.421,-8.51 38.842,-17.02 58.263,-25.53 57.985,-26.188 57.707,-26.845 57.43,-27.502 37.175,-20.967 17.821,-12.285 -0.869,-2.019 -0.58,-1.346 -0.29,-0.673 0,0"
             style="fill:#e6a03a;fill-opacity:1;fill-rule:nonzero;stroke:none"
             id="path43" /></g><g
           id="g45"
           transform="translate(508.7017,683.6895)"><path
             d="M 0,0 C -8.052,19.511 -16.104,39.022 -24.155,58.533 -17.88,54.177 -0.714,13.487 1.589,0.814 1.059,0.543 0.53,0.271 0,0"
             style="fill:#e6a03a;fill-opacity:1;fill-rule:nonzero;stroke:none"
             id="path47" /></g><g
           id="g49"
           transform="translate(660.6641,692.9473)"><path
             d="m 0,0 c -16.985,-12.88 -33.972,-25.761 -50.958,-38.642 3.497,7.804 34.819,32.031 49.76,40.152 C -0.799,1.006 -0.399,0.503 0,0"
             style="fill:#e6a03a;fill-opacity:1;fill-rule:nonzero;stroke:none"
             id="path51" /></g><g
           id="g53"
           transform="translate(456.2266,726.0928)"><path
             d="M 0,0 C 12.306,-16.668 24.612,-33.337 36.918,-50.005 36.534,-50.297 36.15,-50.59 35.766,-50.882 29.574,-47.215 4.543,-13.736 -1.416,-1.152 -0.944,-0.768 -0.472,-0.384 0,0"
             style="fill:#e6a03a;fill-opacity:1;fill-rule:nonzero;stroke:none"
             id="path55" /></g><g
           id="g57"
           transform="translate(677.6807,662.5259)"><path
             d="m 0,0 c -18.602,-10.151 -37.926,-18.539 -58.049,-24.982 -0.287,0.694 -0.573,1.387 -0.86,2.081 19.367,8.284 38.734,16.567 58.101,24.85 C -0.538,1.299 -0.27,0.65 0,0"
             style="fill:#e6a03a;fill-opacity:1;fill-rule:nonzero;stroke:none"
             id="path59" /></g><g
           id="g61"
           transform="translate(593.6689,674.0449)"><path
             d="M 0,0 C 10.372,18.199 22.828,34.842 37.321,49.92 26.978,31.702 14.418,15.166 0,0"
             style="fill:#e6a03a;fill-opacity:1;fill-rule:nonzero;stroke:none"
             id="path63" /></g><g
           id="g65"
           transform="translate(426.6929,697.6006)"><path
             d="M 0,0 C 16.75,-12.894 33.501,-25.788 50.252,-38.682 49.82,-39.264 49.389,-39.846 48.958,-40.429 31.054,-29.157 14.345,-16.257 -1.219,-1.798 -0.813,-1.199 -0.406,-0.599 0,0"
             style="fill:#e6a03a;fill-opacity:1;fill-rule:nonzero;stroke:none"
             id="path67" /></g><g
           id="g69"
           transform="translate(551.4639,690.7349)"><path
             d="M 0,0 C 2.645,20.961 5.288,41.921 7.933,62.882 8.931,62.752 9.929,62.623 10.926,62.494 8.339,41.53 5.751,20.567 3.164,-0.397 2.109,-0.265 1.056,-0.132 0,0"
             style="fill:#e6a03a;fill-opacity:1;fill-rule:nonzero;stroke:none"
             id="path71" /></g><g
           id="g73"
           transform="translate(527.1372,752.6899)"><path
             d="M 0,0 C 2.422,-20.792 4.844,-41.584 7.267,-62.376 6.545,-62.465 5.824,-62.555 5.103,-62.645 0.842,-42.131 -1.727,-21.399 -2.125,-0.386 -1.417,-0.257 -0.708,-0.129 0,0"
             style="fill:#e6a03a;fill-opacity:1;fill-rule:nonzero;stroke:none"
             id="path75" /></g><g
           id="g77"
           transform="translate(600.7393,741.5415)"><path
             d="m 0,0 c -6.446,-20.331 -14.654,-39.898 -24.703,-58.669 -0.647,0.281 -1.293,0.561 -1.94,0.841 L -1.993,0.864 C -1.329,0.576 -0.664,0.288 0,0"
             style="fill:#e6a03a;fill-opacity:1;fill-rule:nonzero;stroke:none"
             id="path79" /></g><g
           id="g81"
           transform="translate(613.8359,675.9097)"><path
             d="m 0,0 c -14.11,-14.401 -28.221,-28.801 -42.332,-43.202 0.735,6.812 30.823,38.047 41.091,44.48 C -0.828,0.852 -0.414,0.426 0,0"
             style="fill:#e6a03a;fill-opacity:1;fill-rule:nonzero;stroke:none"
             id="path83" /></g><g
           id="g85"
           transform="translate(517.6182,705.6831)"><path
             d="m 0,0 c 5.192,-19.518 10.385,-39.037 15.577,-58.555 -0.693,-0.191 -1.385,-0.383 -2.078,-0.574 C 6.304,-40.165 1.344,-20.583 -1.979,-0.546 -1.319,-0.364 -0.66,-0.182 0,0"
             style="fill:#e6a03a;fill-opacity:1;fill-rule:nonzero;stroke:none"
             id="path87" /></g><g
           id="g89"
           transform="translate(551.7217,647.2856)"><path
             d="m 0,0 c 5.052,19.158 10.103,38.316 15.154,57.474 l 1.351,-0.366 C 17.43,49.217 6.71,8.217 1.468,-0.399 0.979,-0.266 0.488,-0.133 0,0"
             style="fill:#e6a03a;fill-opacity:1;fill-rule:nonzero;stroke:none"
             id="path91" /></g><g
           id="g93"
           transform="translate(624.0527,616.5137)"><path
             d="M 0,0 C 14.959,1.798 29.919,3.597 44.878,5.395 44.963,4.684 45.047,3.973 45.132,3.262 30.417,-0.551 15.454,-2.33 0.258,-2.168 0.172,-1.445 0.086,-0.723 0,0"
             style="fill:#e6a03a;fill-opacity:1;fill-rule:nonzero;stroke:none"
             id="path95" /></g><g
           id="g97"
           transform="translate(459.9351,615.7031)"><path
             d="m 0,0 c -13.942,1.738 -27.885,3.476 -41.827,5.214 5.074,3.754 34.019,0.309 42,-3.758 C 0.115,0.97 0.058,0.485 0,0"
             style="fill:#e6a03a;fill-opacity:1;fill-rule:nonzero;stroke:none"
             id="path99" /></g><g
           id="g101"
           transform="translate(496.6011,605.4463)"><path
             d="m 0,0 h -20.541 c -0.001,0.694 -0.002,1.387 -0.004,2.081 H -0.001 C -0.001,1.387 0,0.694 0,0"
             style="fill:#e6a03a;fill-opacity:1;fill-rule:nonzero;stroke:none"
             id="path103" /></g><g
           id="g105"
           transform="translate(576.915,662.7456)"><path
             d="m 0,0 c -3.578,-6.236 -7.156,-12.471 -10.734,-18.706 -0.829,0.482 -1.658,0.964 -2.486,1.446 C -9.731,-11 -6.242,-4.74 -2.755,1.52 -1.837,1.014 -0.918,0.507 0,0"
             style="fill:#e6a03a;fill-opacity:1;fill-rule:nonzero;stroke:none"
             id="path107" /></g><g
           id="g109"
           transform="translate(510.8457,664.9346)"><path
             d="M 0,0 C 3.471,-6.112 6.942,-12.224 10.413,-18.335 9.802,-18.691 9.191,-19.047 8.58,-19.403 3.409,-14.274 -0.203,-8.244 -1.8,-1.048 -1.2,-0.699 -0.6,-0.349 0,0"
             style="fill:#e6a03a;fill-opacity:1;fill-rule:nonzero;stroke:none"
             id="path111" /></g><g
           id="g113"
           transform="translate(541.9961,651.8501)"><path
             d="M 0,0 C -1.906,6.891 -1.968,13.778 0.03,20.66 0.572,20.659 1.114,20.658 1.657,20.657 V -0.003 C 1.104,-0.002 0.553,-0.001 0,0"
             style="fill:#e6a03a;fill-opacity:1;fill-rule:nonzero;stroke:none"
             id="path115" /></g><path
           d="m 586.867,606.054 h 21.186 v -2.044 h -21.186 z"
           style="fill:#e6a03a;fill-opacity:1;fill-rule:nonzero;stroke:none"
           id="path117" /><g
           id="g119"
           transform="translate(502.0083,628.2129)"><path
             d="m 0,0 c -5.786,3.371 -11.573,6.743 -17.359,10.114 0.5,0.887 1,1.775 1.5,2.662 C -10.075,9.4 -4.291,6.024 1.493,2.649 0.995,1.766 0.497,0.883 0,0"
             style="fill:#e6a03a;fill-opacity:1;fill-rule:nonzero;stroke:none"
             id="path121" /></g><g
           id="g123"
           transform="translate(599.7812,636.9878)"><path
             d="m 0,0 c -5.699,-3.315 -11.398,-6.629 -17.097,-9.944 -0.369,0.647 -0.738,1.294 -1.107,1.941 4.748,4.985 10.503,8.251 17.163,9.971 C -0.694,1.312 -0.347,0.656 0,0"
             style="fill:#e6a03a;fill-opacity:1;fill-rule:nonzero;stroke:none"
             id="path125" /></g><g
           id="g127"
           transform="translate(690.1406,427.2285)"><path
             d="M 0,0 C 0.073,0.146 3.721,8.473 9.336,15.357 8.433,15.59 7.295,15.67 5.937,15.356 4.42,15.007 2.82,14.21 1.184,12.991 -1.899,10.697 -3.725,7.155 -6.032,2.669 -7.345,0.125 -8.83,-2.759 -10.768,-5.804 c -2.576,-4.057 -6.836,-8.172 -12.66,-12.229 -1.85,-1.292 -3.842,-2.569 -5.953,-3.817 0.044,0.006 0.087,0.011 0.133,0.015 2.191,0.245 4.393,0.52 6.556,0.81 0.104,0.014 0.209,0.026 0.313,0.042 2.735,1.659 4.86,3.087 6.292,4.231 C -11.926,-13.426 -5.254,-6.28 0,0"
             style="fill:#153045;fill-opacity:1;fill-rule:nonzero;stroke:none"
             id="path129" /></g><g
           id="g131"
           transform="translate(709.7812,435.2012)"><path
             d="M 0,0 C 3.742,4.87 7.864,10.228 12.623,13.662 9.059,14.951 5.637,14.398 1.68,12.007 -2.077,9.736 -4.093,7.171 -12.996,-4.568 c -5.376,-7.087 -15.251,-18.088 -20.823,-22.543 -0.304,-0.245 -0.635,-0.5 -0.995,-0.764 0.392,0.066 0.778,0.13 1.157,0.195 0.307,0.051 0.624,0.103 0.922,0.157 0.813,0.141 1.6,0.284 2.339,0.426 0.82,0.159 1.65,0.347 2.492,0.56 0.272,0.071 0.553,0.159 0.828,0.234 0.574,0.157 1.15,0.311 1.736,0.492 0.333,0.104 0.676,0.23 1.012,0.342 0.54,0.18 1.077,0.352 1.628,0.552 0.361,0.132 0.736,0.287 1.103,0.428 0.489,0.188 0.976,0.373 1.472,0.578 4.771,4.804 14.32,16.538 17.646,20.721 C -1.678,-2.183 -0.854,-1.107 0,0"
             style="fill:#153045;fill-opacity:1;fill-rule:nonzero;stroke:none"
             id="path133" /></g><g
           id="g135"
           transform="translate(712.2041,433.3389)"><path
             d="m 0,0 c -0.861,-1.123 -1.697,-2.211 -2.509,-3.23 -0.092,-0.113 -6.852,-8.603 -12.693,-15.312 0.244,0.13 0.488,0.259 0.731,0.392 0.154,0.083 0.307,0.167 0.458,0.252 1.211,0.669 2.394,1.355 3.538,2.044 0.084,0.052 0.167,0.101 0.251,0.153 0.497,0.302 0.987,0.603 1.468,0.904 0.1,0.061 0.196,0.122 0.294,0.183 0.512,0.324 1.017,0.646 1.51,0.965 0.029,0.019 0.061,0.039 0.092,0.058 1.1,0.715 2.149,1.42 3.141,2.1 0.031,0.023 0.064,0.043 0.094,0.066 0.459,0.316 0.904,0.626 1.337,0.929 0.038,0.028 0.077,0.056 0.118,0.083 1.369,0.965 2.597,1.861 3.649,2.642 0.048,0.036 0.095,0.07 0.141,0.106 0.308,0.226 0.599,0.445 0.873,0.651 0.036,0.027 0.074,0.055 0.111,0.081 0.296,0.222 0.576,0.432 0.833,0.626 2.475,1.862 5.001,4.894 7.921,8.405 3.348,4.024 7.092,8.519 11.689,12.307 -1.833,1.223 -4.211,1.513 -7.113,0.843 C 9.998,13.012 4.688,6.099 0,0"
             style="fill:#153045;fill-opacity:1;fill-rule:nonzero;stroke:none"
             id="path137" /></g><g
           id="g139"
           transform="translate(741.1562,447.79)"><path
             d="m 0,0 c -0.788,-0.183 -1.52,-0.519 -2.173,-1.001 -5.194,-3.843 -9.38,-8.87 -13.072,-13.309 -3.043,-3.657 -5.673,-6.815 -8.433,-8.891 -4.458,-3.352 -14.899,-11.202 -26.368,-16.013 -3.331,-1.386 -6.533,-2.438 -9.517,-3.128 -0.544,-0.125 -1.087,-0.24 -1.631,-0.346 -3.231,-0.621 -7.197,-1.257 -11.471,-1.846 -4.932,-0.676 -10.087,-1.247 -14.912,-1.653 -19.846,-1.676 -22.26,0.42 -23.054,1.112 -1.151,0.998 -1.106,2.011 -0.978,2.528 0.394,1.587 2.33,2.234 4.17,2.659 4.231,0.978 11.014,1.189 11.302,1.195 l 0.17,-0.005 c 0.058,-10e-4 5.882,-0.46 11.622,0.865 2.967,0.685 5.379,1.716 7.172,3.066 0.444,0.333 0.867,0.705 1.262,1.107 1.488,1.525 3.078,3.747 2.174,5.618 -0.663,1.37 -2.408,2.065 -2.996,2.005 -1.017,-0.105 -4.393,-0.109 -10.273,-0.103 -6.489,0.004 -14.563,0.01 -19.686,-0.202 -1.662,-0.07 -3.451,-0.092 -5.342,-0.115 -5.992,-0.072 -12.785,-0.155 -19.796,-1.774 -3.263,-0.753 -6.226,-1.754 -9.06,-3.059 l -1.784,-0.821 c -11.947,-5.472 -23.233,-10.641 -28.816,-28.617 -0.822,-2.647 -1.301,-5.347 -1.807,-8.207 -0.831,-4.679 -1.688,-9.518 -4.165,-14.212 -1.448,-2.744 -4.019,-6.321 -6.743,-10.102 -3.5,-4.858 -8.737,-12.14 -8.57,-14.471 1.342,-0.843 9.139,-2.752 21.482,1.809 32.059,11.844 36.815,22.877 64.526,29.251 2.699,0.622 5.57,1.141 8.473,1.812 21.462,4.954 73.59,19.876 94.053,51.325 C -0.581,-17.896 6.1,-5.889 8.244,-2.008 6.525,-0.979 3.091,0.714 0,0"
             style="fill:#153045;fill-opacity:1;fill-rule:nonzero;stroke:none"
             id="path141" /></g><g
           id="g143"
           transform="translate(394.8599,427.2285)"><path
             d="m 0,0 c -0.074,0.146 -3.721,8.473 -9.336,15.357 0.903,0.233 2.041,0.313 3.399,-10e-4 1.517,-0.349 3.116,-1.146 4.753,-2.365 3.083,-2.294 4.908,-5.836 7.216,-10.322 1.312,-2.544 2.798,-5.428 4.735,-8.473 2.576,-4.057 6.837,-8.172 12.66,-12.229 1.851,-1.292 3.842,-2.569 5.954,-3.817 -0.044,0.006 -0.087,0.011 -0.133,0.015 -2.192,0.245 -4.393,0.52 -6.556,0.81 -0.104,0.014 -0.209,0.026 -0.313,0.042 -2.736,1.659 -4.861,3.087 -6.292,4.231 C 11.925,-13.426 5.254,-6.28 0,0"
             style="fill:#153045;fill-opacity:1;fill-rule:nonzero;stroke:none"
             id="path145" /></g><g
           id="g147"
           transform="translate(375.2187,435.2012)"><path
             d="m 0,0 c -3.742,4.87 -7.864,10.228 -12.623,13.662 3.564,1.289 6.986,0.736 10.943,-1.655 3.757,-2.271 5.773,-4.836 14.676,-16.575 5.376,-7.087 15.251,-18.088 20.823,-22.543 0.304,-0.245 0.635,-0.5 0.995,-0.764 -0.392,0.066 -0.778,0.13 -1.157,0.195 -0.307,0.051 -0.624,0.103 -0.922,0.157 -0.813,0.141 -1.6,0.284 -2.339,0.426 -0.82,0.159 -1.65,0.347 -2.492,0.56 -0.272,0.071 -0.553,0.159 -0.828,0.234 -0.574,0.157 -1.15,0.311 -1.736,0.492 -0.333,0.104 -0.676,0.23 -1.012,0.342 -0.54,0.18 -1.077,0.352 -1.628,0.552 -0.361,0.132 -0.736,0.287 -1.103,0.428 -0.489,0.188 -0.976,0.373 -1.472,0.578 C 15.353,-19.107 5.805,-7.373 2.478,-3.19 1.678,-2.183 0.853,-1.107 0,0"
             style="fill:#153045;fill-opacity:1;fill-rule:nonzero;stroke:none"
             id="path149" /></g><g
           id="g151"
           transform="translate(372.7954,433.3389)"><path
             d="m 0,0 c 0.862,-1.123 1.698,-2.211 2.509,-3.23 0.092,-0.113 6.853,-8.603 12.694,-15.312 -0.245,0.13 -0.489,0.259 -0.732,0.392 -0.153,0.083 -0.307,0.167 -0.458,0.252 -1.211,0.669 -2.393,1.355 -3.538,2.044 -0.084,0.052 -0.167,0.101 -0.251,0.153 -0.497,0.302 -0.986,0.603 -1.468,0.904 -0.099,0.061 -0.196,0.122 -0.294,0.183 -0.511,0.324 -1.016,0.646 -1.509,0.965 -0.03,0.019 -0.062,0.039 -0.092,0.058 -1.101,0.715 -2.15,1.42 -3.142,2.1 -0.031,0.023 -0.063,0.043 -0.094,0.066 -0.459,0.316 -0.904,0.626 -1.337,0.929 -0.038,0.028 -0.077,0.056 -0.118,0.083 -1.369,0.965 -2.596,1.861 -3.649,2.642 -0.048,0.036 -0.095,0.07 -0.141,0.106 -0.307,0.226 -0.598,0.445 -0.873,0.651 -0.036,0.027 -0.074,0.055 -0.11,0.081 -0.297,0.222 -0.576,0.432 -0.833,0.626 -2.476,1.862 -5.001,4.894 -7.922,8.405 -3.348,4.024 -7.092,8.519 -11.688,12.307 1.833,1.223 4.21,1.513 7.113,0.843 C -9.998,13.012 -4.688,6.099 0,0"
             style="fill:#153045;fill-opacity:1;fill-rule:nonzero;stroke:none"
             id="path153" /></g><g
           id="g155"
           transform="translate(343.8433,447.79)"><path
             d="m 0,0 c 0.788,-0.183 1.52,-0.519 2.173,-1.001 5.194,-3.843 9.38,-8.87 13.072,-13.309 3.043,-3.657 5.673,-6.815 8.433,-8.891 4.458,-3.352 14.899,-11.202 26.368,-16.013 3.331,-1.386 6.533,-2.438 9.518,-3.128 0.544,-0.125 1.087,-0.24 1.631,-0.346 3.23,-0.621 7.196,-1.257 11.47,-1.846 4.932,-0.676 10.087,-1.247 14.912,-1.653 19.846,-1.676 22.26,0.42 23.054,1.112 1.151,0.998 1.107,2.011 0.979,2.528 -0.395,1.587 -2.33,2.234 -4.17,2.659 -4.232,0.978 -11.015,1.189 -11.303,1.195 l -0.17,-0.005 c -0.058,-10e-4 -5.882,-0.46 -11.622,0.865 -2.967,0.685 -5.379,1.716 -7.172,3.066 -0.444,0.333 -0.867,0.705 -1.262,1.107 -1.488,1.525 -3.078,3.747 -2.173,5.618 0.663,1.37 2.407,2.065 2.996,2.005 1.016,-0.105 4.392,-0.109 10.272,-0.103 6.489,0.004 14.564,0.01 19.687,-0.202 1.661,-0.07 3.45,-0.092 5.341,-0.115 5.993,-0.072 12.786,-0.155 19.796,-1.774 3.263,-0.753 6.226,-1.754 9.06,-3.059 l 1.784,-0.821 c 11.947,-5.472 23.233,-10.641 28.816,-28.617 0.822,-2.647 1.301,-5.347 1.807,-8.207 0.831,-4.679 1.689,-9.518 4.165,-14.212 1.448,-2.744 4.02,-6.321 6.743,-10.102 3.5,-4.858 8.738,-12.14 8.571,-14.471 -1.343,-0.843 -9.14,-2.752 -21.483,1.809 -32.058,11.844 -36.815,22.877 -64.526,29.251 -2.698,0.622 -5.569,1.141 -8.473,1.812 -21.462,4.954 -73.59,19.876 -94.053,51.325 -3.66,5.627 -10.34,17.634 -12.485,21.515 C -6.525,-0.979 -3.091,0.714 0,0"
             style="fill:#153045;fill-opacity:1;fill-rule:nonzero;stroke:none"
             id="path157" /></g><g
           id="g159"
           transform="translate(676.3408,581.0371)"><path
             d="m 0,0 h -267.682 c 0,-76.58 59.923,-138.66 133.841,-138.66 C -59.923,-138.66 0,-76.58 0,0"
             style="fill:#153045;fill-opacity:1;fill-rule:nonzero;stroke:none"
             id="path161" /></g><g
           id="g163"
           transform="translate(380.7285,669.9497)"><path
             d="m 0,0 0.621,2.479 -9.102,2.28 3.199,12.771 9.102,-2.281 0.621,2.479 -19.147,4.796 -0.621,-2.478 8.541,-2.14 -3.199,-12.771 -8.541,2.14 -0.621,-2.479 z m 11.503,34.326 c 2.184,4.865 0.636,10.333 -3.507,12.193 -4.142,1.86 -9.257,-0.615 -11.442,-5.48 -2.172,-4.837 -0.624,-10.305 3.519,-12.165 4.142,-1.86 9.257,0.615 11.43,5.452 M 10.2,34.911 C 8.452,31.019 4.632,29.728 1.157,31.289 c -3.42,1.535 -5.048,5.273 -3.3,9.165 1.735,3.865 5.611,5.131 9.03,3.595 3.475,-1.561 5.048,-5.273 3.313,-9.138 m 8.406,14.927 0.984,1.536 -10.565,6.77 11.501,0.557 0.313,0.487 -4.51,10.129 10.463,-6.704 1.362,2.125 -12.874,8.25 -1.313,-2.049 4.457,-9.986 -11.231,-0.585 -1.461,-2.28 z m 15.289,21.96 9.701,10.651 -1.191,1.085 -8.001,-8.784 -4.035,3.674 4.104,4.505 -1.169,1.064 -4.103,-4.504 -3.719,3.387 7.57,8.311 -1.191,1.085 -9.27,-10.178 z m 30.443,27.523 c 3.222,2.406 4.082,4.717 4.677,6.873 l -1.675,0.308 c -0.503,-1.821 -1.262,-3.91 -3.679,-5.715 -3.247,-2.424 -7.622,-2.573 -9.956,0.552 -2.462,3.296 -1.467,7.462 1.511,9.687 2.489,1.859 4.842,2.171 6.975,2.014 l 0.18,1.694 c -2.473,0.206 -5.593,-0.607 -7.888,-2.321 -4.808,-3.591 -5.707,-8.898 -2.899,-12.658 2.845,-3.809 8.434,-3.661 12.754,-0.434 m 19.224,11.975 c 4.743,2.438 6.945,7.677 4.87,11.715 -2.076,4.039 -7.618,5.298 -12.361,2.86 -4.716,-2.424 -6.918,-7.663 -4.842,-11.702 2.075,-4.038 7.617,-5.297 12.333,-2.873 m -0.653,1.27 c -3.794,-1.95 -7.585,-0.575 -9.326,2.813 -1.714,3.334 -0.654,7.271 3.141,9.222 3.767,1.936 7.586,0.506 9.299,-2.827 1.742,-3.388 0.654,-7.271 -3.114,-9.208 m 23.75,8.804 c 5.044,1.731 7.977,6.599 6.503,10.894 -1.474,4.295 -6.777,6.337 -11.821,4.606 -5.016,-1.72 -7.948,-6.588 -6.474,-10.883 1.473,-4.295 6.777,-6.337 11.792,-4.617 m -0.463,1.351 c -4.036,-1.384 -7.59,0.522 -8.826,4.125 -1.216,3.545 0.399,7.289 4.434,8.674 4.007,1.374 7.58,-0.589 8.797,-4.135 1.236,-3.603 -0.399,-7.289 -4.405,-8.664 m 16.702,4.149 2.482,0.463 -0.816,4.371 2.944,3.989 7.785,-6.51 2.995,0.559 -9.375,7.887 5.612,6.965 -2.756,-0.514 -7.601,-10.25 -1.593,8.534 -2.482,-0.464 z m 21.946,3.492 2.516,0.217 -1.318,15.234 -2.515,-0.218 z m 11.401,0.906 1.824,-0.022 0.147,11.878 10.58,-12.011 1.824,-0.022 0.19,15.289 -1.795,0.022 -0.145,-11.786 -10.46,11.917 -1.976,0.024 z m 31.236,-2.581 c 3.851,-0.622 7.218,0.744 8.433,1.783 l 0.806,4.992 -2.433,0.393 -0.786,-4.873 c -1.329,-0.773 -2.88,-1.201 -5.316,-0.808 -4.002,0.646 -6.913,3.646 -6.291,7.496 0.626,3.882 3.804,6.364 8.137,5.665 2.587,-0.417 4.279,-1.802 5.698,-3.328 l 1.444,1.126 c -1.653,1.778 -3.47,3.149 -6.9,3.702 -5.235,0.845 -10.245,-2.109 -10.993,-6.743 -0.757,-4.692 3.297,-8.614 8.201,-9.405 m 14.22,-6.047 c 2.501,-0.659 3.359,-0.037 3.917,2.083 l 0.963,3.653 -3.149,0.83 -0.683,-2.592 1.826,-0.482 -0.279,-1.06 c -0.313,-1.178 -0.819,-1.549 -2.262,-1.169 z m 21.939,-3.146 13.254,-5.648 0.631,1.481 -10.931,4.659 2.139,5.02 5.606,-2.389 0.62,1.454 -5.605,2.389 1.971,4.628 10.342,-4.407 0.632,1.482 -12.665,5.397 z m 19.213,-9.126 10.45,-6.019 0.804,1.396 -8.263,4.759 6.827,11.854 -2.188,1.26 z m 15.524,-9.567 11.334,-8.893 0.995,1.268 -9.348,7.334 3.369,4.293 4.794,-3.761 0.975,1.244 -4.794,3.761 3.105,3.958 8.845,-6.94 0.994,1.268 -10.831,8.498 z m 20.741,-17.725 1.229,-1.227 16.623,5.015 -1.445,1.442 -13.694,-4.495 4.635,13.532 -2.027,2.023 z m 7.975,-8.232 1.318,-1.676 4.704,0.871 6.142,-7.804 -1.877,-4.463 1.753,-2.226 6.721,16.183 -1.433,1.82 z m 16.288,1.072 -3.467,-8.157 -5.182,6.584 z m -0.412,-23.08 1.278,-2.107 11.694,7.097 3.067,-5.053 1.377,0.836 -7.38,12.16 -1.377,-0.836 3.035,-5 z m 7.157,-12.909 5.902,-13.143 1.469,0.66 -4.867,10.839 4.978,2.236 2.496,-5.558 1.442,0.647 -2.496,5.559 4.589,2.06 4.606,-10.255 1.469,0.66 -5.64,12.559 z m 8.102,-19.683 1.939,-6.984 c 0.718,-2.584 2.041,-4.62 3.867,-5.853 1.678,-1.144 3.771,-1.731 6.09,-1.087 2.026,0.563 3.549,2.028 4.391,3.778 0.959,2.005 1.176,4.406 0.384,7.255 l -1.94,6.984 z m 2.227,-2.001 11.628,3.23 1.077,-3.876 c 0.709,-2.555 0.535,-4.09 -0.341,-5.947 -0.617,-1.31 -1.684,-2.365 -3.387,-2.838 -2.936,-0.816 -6.506,0.533 -7.835,5.32 z"
             style="fill:#153045;fill-opacity:1;fill-rule:nonzero;stroke:none"
             id="path165" /></g></g></g></g></svg>
